<?xml version="1.0"?>
<svg xmlns="http://www.w3.org/2000/svg" viewBox="0 0 64 64" width="512" height="512"><g id="Flat_Icon" data-name="Flat Icon"><circle cx="54" cy="44" r="5" style="fill:#4891d3"/><path d="M51,49h6a4,4,0,0,1,4,4v8a0,0,0,0,1,0,0H47a0,0,0,0,1,0,0V53A4,4,0,0,1,51,49Z" style="fill:#4891d3"/><polygon points="55 49 51 49 52 52 51 58 53 61 55 58 54 52 55 49" style="fill:#2d72bc"/><path d="M54,58a4,4,0,0,1-4-4V53a4,4,0,0,1,4-4H51a4,4,0,0,0-4,4v8H61V58Z" style="fill:#2d72bc"/><polygon points="56 49 52 49 53 52 52 58 54 61 56 58 55 52 56 49" style="fill:#a1d51c"/><path d="M52,43a5,5,0,0,1,2-4h0a5,5,0,1,0,3,9A5,5,0,0,1,52,43Z" style="fill:#2d72bc"/><path d="M54,57V51a1,1,0,0,1,1-1h.67L56,49H52l1,3-1,6,2,3,1-1.43A4,4,0,0,1,54,57Z" style="fill:#7ab92d"/><path d="M47,53a4,4,0,0,1,.55-2H45a2,2,0,0,0-2,2v4h4Z" style="fill:#57b7eb"/><path d="M47.59,50.94a4,4,0,0,1,2.14-1.72A2.91,2.91,0,0,0,50,48a3,3,0,1,0-3,3A2.88,2.88,0,0,0,47.59,50.94Z" style="fill:#57b7eb"/><polygon points="48 19 48 15 42 15 42 19 42 31 59 31 59 19 48 19" style="fill:#4891d3"/><polygon points="55 22 53 22 53 23 55 23 55 24 56 24 56 23 56 22 55 22" style="fill:#2d72bc"/><path d="M55,28a10,10,0,0,1-10-9h3V17H47a2,2,0,0,1-2-2H42V31H59V28Z" style="fill:#2d72bc"/><polygon points="59 19 54 19 55 10 59 10 59 19" style="fill:#f9e109"/><rect x="46" y="24" width="6" height="7" style="fill:#f9e109"/><rect x="38" y="23" width="4" height="8" style="fill:#a1d51c"/><path d="M56.49,12.56,56.78,10H55l-1,9h5V16.7A4,4,0,0,1,56.49,12.56Z" style="fill:#fcbc04"/><path d="M46,24v1h1a4,4,0,0,1,4,4v2h1V24Z" style="fill:#fcbc04"/><rect x="8" y="41" width="12" height="10" style="fill:#fcbc04"/><polygon points="20 51 28 51 28 47 25.5 43 20 43 20 51" style="fill:#4891d3"/><circle cx="23" cy="53" r="2" style="fill:#57b7eb"/><circle cx="12" cy="53" r="2" style="fill:#57b7eb"/><rect x="12" y="41" width="4" height="4" style="fill:#57b7eb"/><rect x="20" y="47" width="8" height="4" style="fill:#a1d51c"/><circle cx="23" cy="53" r="1" style="fill:#2d72bc"/><circle cx="12" cy="53" r="1" style="fill:#2d72bc"/><path d="M22,43a4,4,0,0,0,4,4h2l-2.5-4Z" style="fill:#57b7eb"/><path d="M26,49h2V47H22.55A4,4,0,0,0,26,49Z" style="fill:#c4f236"/><path d="M19,43l-2.92,5.76A8,8,0,0,1,10,41H8V51H20V43Z" style="fill:#e59730"/><rect x="3" y="11" width="20" height="12" style="fill:#a1d51c"/><circle cx="13" cy="17" r="2" style="fill:#f9e109"/><rect x="12" y="7" width="8" height="4" style="fill:#e59730"/><rect x="23" y="19" width="5" height="4" style="fill:#fcbc04"/><rect x="20" y="7" width="8" height="4" style="fill:#f9e109"/><rect x="23" y="15" width="5" height="4" style="fill:#f9e109"/><rect x="23" y="11" width="5" height="4" style="fill:#fcbc04"/><rect x="17" y="3" width="8" height="4" style="fill:#fcbc04"/><rect x="9" y="3" width="8" height="4" style="fill:#f9e109"/><path d="M14,20a8,8,0,0,1-8-8V11H3V23H23V20Z" style="fill:#7ab92d"/><path d="M45.14,51A4.09,4.09,0,0,0,45,52v5h2V53a4,4,0,0,1,.55-2Z" style="fill:#4891d3"/><path d="M45.31,50.48A3,3,0,0,0,47,51a2.88,2.88,0,0,0,.59-.06,4,4,0,0,1,2.14-1.72A2.91,2.91,0,0,0,50,48a3,3,0,0,0-3-3,5,5,0,0,0,1.11,3.11A4,4,0,0,0,45.31,50.48Z" style="fill:#4891d3"/><circle cx="19" cy="17" r="1" style="fill:#f9e109"/><circle cx="7" cy="17" r="1" style="fill:#f9e109"/><path d="M50,11a1,1,0,0,1-1-1,3,3,0,0,0-3-3H32a1,1,0,0,1,0-2H46a5,5,0,0,1,5,5A1,1,0,0,1,50,11Z" style="fill:#4891d3"/><path d="M36,62H22a5,5,0,0,1-5-5V55a1,1,0,0,1,2,0v2a3,3,0,0,0,3,3H36a1,1,0,0,1,0,2Z" style="fill:#4891d3"/><path d="M15,37a1,1,0,0,1-1-1V28a1,1,0,0,1,2,0v8A1,1,0,0,1,15,37Z" style="fill:#4891d3"/><path d="M46,41a1,1,0,0,1-1-1V36a1,1,0,0,1,2,0v4A1,1,0,0,1,46,41Z" style="fill:#4891d3"/><path d="M40,43a1,1,0,0,1-.71-.29l-12-12a1,1,0,0,1,1.42-1.42l12,12a1,1,0,0,1,0,1.42A1,1,0,0,1,40,43Z" style="fill:#4891d3"/></g></svg>
